<mxfile host="app.diagrams.net" modified="2023-10-09T09:09:31.887Z" agent="Mozilla/5.0 (X11; Linux x86_64) AppleWebKit/537.36 (KHTML, like Gecko) Chrome/117.0.0.0 Safari/537.36" etag="j2eorn4OGU9i2SsJTX2l" version="22.0.4" type="github">
  <diagram name="Page-1" id="iI3vxlhgTOdM8rAlyuLw">
    <mxGraphModel dx="1194" dy="713" grid="1" gridSize="10" guides="1" tooltips="1" connect="1" arrows="1" fold="1" page="1" pageScale="1" pageWidth="850" pageHeight="1100" math="0" shadow="0">
      <root>
        <mxCell id="0" />
        <mxCell id="1" parent="0" />
        <mxCell id="IWyl7pEAde-8dPMzAs44-1" value="" style="shape=mxgraph.cisco.routers.router;sketch=0;html=1;pointerEvents=1;dashed=0;fillColor=#036897;strokeColor=#ffffff;strokeWidth=2;verticalLabelPosition=bottom;verticalAlign=top;align=center;outlineConnect=0;" vertex="1" parent="1">
          <mxGeometry x="120" y="180" width="78" height="53" as="geometry" />
        </mxCell>
        <mxCell id="IWyl7pEAde-8dPMzAs44-2" value="" style="shape=mxgraph.cisco.routers.router;sketch=0;html=1;pointerEvents=1;dashed=0;fillColor=#036897;strokeColor=#ffffff;strokeWidth=2;verticalLabelPosition=bottom;verticalAlign=top;align=center;outlineConnect=0;" vertex="1" parent="1">
          <mxGeometry x="460" y="180" width="78" height="53" as="geometry" />
        </mxCell>
        <mxCell id="IWyl7pEAde-8dPMzAs44-3" value="" style="shape=mxgraph.cisco.switches.workgroup_switch;sketch=0;html=1;pointerEvents=1;dashed=0;fillColor=#036897;strokeColor=#ffffff;strokeWidth=2;verticalLabelPosition=bottom;verticalAlign=top;align=center;outlineConnect=0;" vertex="1" parent="1">
          <mxGeometry x="110" y="350" width="101" height="50" as="geometry" />
        </mxCell>
        <mxCell id="IWyl7pEAde-8dPMzAs44-4" value="" style="shape=mxgraph.cisco.switches.workgroup_switch;sketch=0;html=1;pointerEvents=1;dashed=0;fillColor=#036897;strokeColor=#ffffff;strokeWidth=2;verticalLabelPosition=bottom;verticalAlign=top;align=center;outlineConnect=0;" vertex="1" parent="1">
          <mxGeometry x="448.5" y="350" width="101" height="50" as="geometry" />
        </mxCell>
        <mxCell id="IWyl7pEAde-8dPMzAs44-5" value="" style="shape=mxgraph.cisco.computers_and_peripherals.workstation;sketch=0;html=1;pointerEvents=1;dashed=0;fillColor=#036897;strokeColor=#ffffff;strokeWidth=2;verticalLabelPosition=bottom;verticalAlign=top;align=center;outlineConnect=0;" vertex="1" parent="1">
          <mxGeometry x="117.5" y="488" width="83" height="62" as="geometry" />
        </mxCell>
        <mxCell id="IWyl7pEAde-8dPMzAs44-6" value="" style="shape=mxgraph.cisco.computers_and_peripherals.workstation;sketch=0;html=1;pointerEvents=1;dashed=0;fillColor=#036897;strokeColor=#ffffff;strokeWidth=2;verticalLabelPosition=bottom;verticalAlign=top;align=center;outlineConnect=0;" vertex="1" parent="1">
          <mxGeometry x="457.5" y="488" width="83" height="62" as="geometry" />
        </mxCell>
        <mxCell id="IWyl7pEAde-8dPMzAs44-7" value="" style="edgeStyle=isometricEdgeStyle;endArrow=none;html=1;rounded=0;entryX=0.12;entryY=0.9;entryDx=0;entryDy=0;entryPerimeter=0;fillColor=#f8cecc;strokeColor=#b85450;strokeWidth=5;" edge="1" parent="1">
          <mxGeometry width="50" height="100" relative="1" as="geometry">
            <mxPoint x="190" y="200" as="sourcePoint" />
            <mxPoint x="469.3599999999999" y="223.86000000000004" as="targetPoint" />
          </mxGeometry>
        </mxCell>
        <mxCell id="IWyl7pEAde-8dPMzAs44-8" value="" style="line;strokeWidth=2;direction=south;html=1;" vertex="1" parent="1">
          <mxGeometry x="494" y="233" width="10" height="117" as="geometry" />
        </mxCell>
        <mxCell id="IWyl7pEAde-8dPMzAs44-9" value="" style="line;strokeWidth=2;direction=south;html=1;" vertex="1" parent="1">
          <mxGeometry x="484" y="400" width="10" height="90" as="geometry" />
        </mxCell>
        <mxCell id="IWyl7pEAde-8dPMzAs44-10" value="" style="line;strokeWidth=2;direction=south;html=1;" vertex="1" parent="1">
          <mxGeometry x="154" y="233" width="10" height="117" as="geometry" />
        </mxCell>
        <mxCell id="IWyl7pEAde-8dPMzAs44-11" value="" style="line;strokeWidth=2;direction=south;html=1;" vertex="1" parent="1">
          <mxGeometry x="154" y="400" width="10" height="90" as="geometry" />
        </mxCell>
        <mxCell id="IWyl7pEAde-8dPMzAs44-12" value="R1" style="text;html=1;align=center;verticalAlign=middle;resizable=0;points=[];autosize=1;strokeColor=none;fillColor=none;" vertex="1" parent="1">
          <mxGeometry x="139" y="203" width="40" height="30" as="geometry" />
        </mxCell>
        <mxCell id="IWyl7pEAde-8dPMzAs44-13" value="R2" style="text;html=1;align=center;verticalAlign=middle;resizable=0;points=[];autosize=1;strokeColor=none;fillColor=none;" vertex="1" parent="1">
          <mxGeometry x="484" y="203" width="40" height="30" as="geometry" />
        </mxCell>
        <mxCell id="IWyl7pEAde-8dPMzAs44-14" value="S1" style="text;html=1;align=center;verticalAlign=middle;resizable=0;points=[];autosize=1;strokeColor=none;fillColor=none;" vertex="1" parent="1">
          <mxGeometry x="130" y="370" width="40" height="30" as="geometry" />
        </mxCell>
        <mxCell id="IWyl7pEAde-8dPMzAs44-15" value="S2" style="text;html=1;align=center;verticalAlign=middle;resizable=0;points=[];autosize=1;strokeColor=none;fillColor=none;" vertex="1" parent="1">
          <mxGeometry x="469" y="370" width="40" height="30" as="geometry" />
        </mxCell>
        <mxCell id="IWyl7pEAde-8dPMzAs44-16" value="PC1" style="text;html=1;align=center;verticalAlign=middle;resizable=0;points=[];autosize=1;strokeColor=none;fillColor=none;" vertex="1" parent="1">
          <mxGeometry x="125" y="500" width="50" height="30" as="geometry" />
        </mxCell>
        <mxCell id="IWyl7pEAde-8dPMzAs44-17" value="PC2" style="text;html=1;align=center;verticalAlign=middle;resizable=0;points=[];autosize=1;strokeColor=none;fillColor=none;" vertex="1" parent="1">
          <mxGeometry x="464" y="500" width="50" height="30" as="geometry" />
        </mxCell>
        <mxCell id="IWyl7pEAde-8dPMzAs44-32" style="edgeStyle=orthogonalEdgeStyle;rounded=0;orthogonalLoop=1;jettySize=auto;html=1;" edge="1" parent="1">
          <mxGeometry relative="1" as="geometry">
            <mxPoint x="409" y="881" as="targetPoint" />
            <mxPoint x="409" y="900" as="sourcePoint" />
          </mxGeometry>
        </mxCell>
        <mxCell id="IWyl7pEAde-8dPMzAs44-33" value="G0/0/1&lt;br&gt;&lt;br&gt;S0/1/1&lt;br&gt;&lt;br&gt;192.168.1.1&lt;br&gt;&lt;br&gt;192.168.2.1" style="text;html=1;align=center;verticalAlign=middle;resizable=0;points=[];autosize=1;strokeColor=none;fillColor=none;" vertex="1" parent="1">
          <mxGeometry x="30" y="151.5" width="90" height="110" as="geometry" />
        </mxCell>
        <mxCell id="IWyl7pEAde-8dPMzAs44-34" value="VLAN 1&lt;br&gt;&lt;br&gt;192.168.1.2" style="text;html=1;align=center;verticalAlign=middle;resizable=0;points=[];autosize=1;strokeColor=none;fillColor=none;" vertex="1" parent="1">
          <mxGeometry x="27.5" y="355" width="90" height="60" as="geometry" />
        </mxCell>
        <mxCell id="IWyl7pEAde-8dPMzAs44-35" value="Ethernet&lt;br&gt;&lt;br&gt;192.168.1.3" style="text;html=1;align=center;verticalAlign=middle;resizable=0;points=[];autosize=1;strokeColor=none;fillColor=none;" vertex="1" parent="1">
          <mxGeometry x="27.5" y="485" width="90" height="60" as="geometry" />
        </mxCell>
        <mxCell id="IWyl7pEAde-8dPMzAs44-36" value="S0/1/0&lt;br&gt;&lt;br&gt;G0/0/1&lt;br&gt;&lt;br&gt;192.168.2.2&lt;br&gt;&lt;br&gt;192.168.3.1" style="text;html=1;align=center;verticalAlign=middle;resizable=0;points=[];autosize=1;strokeColor=none;fillColor=none;" vertex="1" parent="1">
          <mxGeometry x="538" y="151.5" width="90" height="110" as="geometry" />
        </mxCell>
        <mxCell id="IWyl7pEAde-8dPMzAs44-37" value="VLAN 1&lt;br&gt;&lt;br&gt;192.168.3.2" style="text;html=1;align=center;verticalAlign=middle;resizable=0;points=[];autosize=1;strokeColor=none;fillColor=none;" vertex="1" parent="1">
          <mxGeometry x="560" y="345" width="90" height="60" as="geometry" />
        </mxCell>
        <mxCell id="IWyl7pEAde-8dPMzAs44-38" value="Ethernet&lt;br&gt;&lt;br&gt;192.168.3.3&lt;br&gt;" style="text;html=1;align=center;verticalAlign=middle;resizable=0;points=[];autosize=1;strokeColor=none;fillColor=none;" vertex="1" parent="1">
          <mxGeometry x="538" y="485" width="90" height="60" as="geometry" />
        </mxCell>
        <mxCell id="IWyl7pEAde-8dPMzAs44-39" value="F0/5&lt;br&gt;&lt;br&gt;&lt;br&gt;&lt;br&gt;F0/6" style="text;html=1;align=center;verticalAlign=middle;resizable=0;points=[];autosize=1;strokeColor=none;fillColor=none;" vertex="1" parent="1">
          <mxGeometry x="211" y="330" width="50" height="90" as="geometry" />
        </mxCell>
        <mxCell id="IWyl7pEAde-8dPMzAs44-40" value="F0/5&lt;br&gt;&lt;br&gt;&lt;br&gt;&lt;br&gt;F0/18" style="text;html=1;align=center;verticalAlign=middle;resizable=0;points=[];autosize=1;strokeColor=none;fillColor=none;" vertex="1" parent="1">
          <mxGeometry x="398.5" y="330" width="50" height="90" as="geometry" />
        </mxCell>
      </root>
    </mxGraphModel>
  </diagram>
</mxfile>
